<svg xmlns="http://www.w3.org/2000/svg" xmlns:xlink="http://www.w3.org/1999/xlink" contentStyleType="text/css" height="547px" preserveAspectRatio="none" style="width:248px;height:547px;background:#FFFFFF;" version="1.1" viewBox="0 0 248 547" width="248px" zoomAndPan="magnify"><defs/><g><ellipse cx="123.2676" cy="20" fill="#222222" rx="10" ry="10" style="stroke:#222222;stroke-width:1.0;"/><rect fill="#F1F1F1" height="33.9688" rx="12.5" ry="12.5" style="stroke:#181818;stroke-width:0.5;" width="52.9238" x="96.8057" y="50"/><text fill="#000000" font-family="sans-serif" font-size="12" lengthAdjust="spacing" textLength="32.9238" x="106.8057" y="71.1387">n = 5</text><rect fill="#F1F1F1" height="33.9688" rx="12.5" ry="12.5" style="stroke:#181818;stroke-width:0.5;" width="91.7363" x="77.3994" y="103.9688"/><text fill="#000000" font-family="sans-serif" font-size="12" lengthAdjust="spacing" textLength="71.7363" x="87.3994" y="125.1074">product = 1</text><rect fill="#F1F1F1" height="33.9688" rx="12.5" ry="12.5" style="stroke:#181818;stroke-width:0.5;" width="48.6523" x="98.9414" y="157.9375"/><text fill="#000000" font-family="sans-serif" font-size="12" lengthAdjust="spacing" textLength="28.6523" x="108.9414" y="179.0762">i = 1</text><rect fill="#F1F1F1" height="33.9688" rx="12.5" ry="12.5" style="stroke:#181818;stroke-width:0.5;" width="174.5352" x="36" y="267.6167"/><text fill="#000000" font-family="sans-serif" font-size="12" lengthAdjust="spacing" textLength="154.5352" x="46" y="288.7554">product = product * (i^2)</text><rect fill="#F1F1F1" height="33.9688" rx="12.5" ry="12.5" style="stroke:#181818;stroke-width:0.5;" width="69.6699" x="88.4326" y="330.6831"/><text fill="#000000" font-family="sans-serif" font-size="12" lengthAdjust="spacing" textLength="49.6699" x="98.4326" y="351.8218">i = i + 1</text><polygon fill="#F1F1F1" points="105.5403,211.9063,140.9949,211.9063,152.9949,223.9063,140.9949,235.9063,105.5403,235.9063,93.5403,223.9063,105.5403,211.9063" style="stroke:#181818;stroke-width:0.5;"/><text fill="#000000" font-family="sans-serif" font-size="11" lengthAdjust="spacing" textLength="19.0083" x="127.2676" y="246.1167">yes</text><text fill="#000000" font-family="sans-serif" font-size="11" lengthAdjust="spacing" textLength="35.4546" x="105.5403" y="227.7144">i &lt;= n</text><rect fill="#F1F1F1" height="33.9688" rx="12.5" ry="12.5" style="stroke:#181818;stroke-width:0.5;" width="118.3145" x="64.1104" y="406.6519"/><text fill="#000000" font-family="sans-serif" font-size="12" lengthAdjust="spacing" textLength="98.3145" x="74.1104" y="427.7905">result = product</text><rect fill="#F1F1F1" height="33.9688" rx="12.5" ry="12.5" style="stroke:#181818;stroke-width:0.5;" width="86.2227" x="80.1563" y="460.6206"/><text fill="#000000" font-family="sans-serif" font-size="12" lengthAdjust="spacing" textLength="66.2227" x="90.1563" y="481.7593">print result</text><ellipse cx="123.2676" cy="525.5894" fill="none" rx="11" ry="11" style="stroke:#222222;stroke-width:1.0;"/><ellipse cx="123.2676" cy="525.5894" fill="#222222" rx="6" ry="6" style="stroke:#222222;stroke-width:1.0;"/><line style="stroke:#181818;stroke-width:1.0;" x1="123.2676" x2="123.2676" y1="30" y2="50"/><polygon fill="#181818" points="119.2676,40,123.2676,50,127.2676,40,123.2676,44" style="stroke:#181818;stroke-width:1.0;"/><line style="stroke:#181818;stroke-width:1.0;" x1="123.2676" x2="123.2676" y1="83.9688" y2="103.9688"/><polygon fill="#181818" points="119.2676,93.9688,123.2676,103.9688,127.2676,93.9688,123.2676,97.9688" style="stroke:#181818;stroke-width:1.0;"/><line style="stroke:#181818;stroke-width:1.0;" x1="123.2676" x2="123.2676" y1="137.9375" y2="157.9375"/><polygon fill="#181818" points="119.2676,147.9375,123.2676,157.9375,127.2676,147.9375,123.2676,151.9375" style="stroke:#181818;stroke-width:1.0;"/><line style="stroke:#181818;stroke-width:1.0;" x1="123.2676" x2="123.2676" y1="301.5854" y2="330.6831"/><polygon fill="#181818" points="119.2676,320.6831,123.2676,330.6831,127.2676,320.6831,123.2676,324.6831" style="stroke:#181818;stroke-width:1.0;"/><line style="stroke:#181818;stroke-width:1.0;" x1="123.2676" x2="123.2676" y1="235.9063" y2="267.6167"/><polygon fill="#181818" points="119.2676,257.6167,123.2676,267.6167,127.2676,257.6167,123.2676,261.6167" style="stroke:#181818;stroke-width:1.0;"/><line style="stroke:#181818;stroke-width:1.0;" x1="123.2676" x2="123.2676" y1="364.6519" y2="374.6519"/><line style="stroke:#181818;stroke-width:1.0;" x1="123.2676" x2="222.5352" y1="374.6519" y2="374.6519"/><polygon fill="#181818" points="218.5352,310.6831,222.5352,300.6831,226.5352,310.6831,222.5352,306.6831" style="stroke:#181818;stroke-width:1.0;"/><line style="stroke:#181818;stroke-width:1.0;" x1="222.5352" x2="222.5352" y1="223.9063" y2="374.6519"/><line style="stroke:#181818;stroke-width:1.0;" x1="222.5352" x2="152.9949" y1="223.9063" y2="223.9063"/><polygon fill="#181818" points="162.9949,219.9063,152.9949,223.9063,162.9949,227.9063,158.9949,223.9063" style="stroke:#181818;stroke-width:1.0;"/><line style="stroke:#181818;stroke-width:1.0;" x1="93.5403" x2="24" y1="223.9063" y2="223.9063"/><polygon fill="#181818" points="20,296.6831,24,306.6831,28,296.6831,24,300.6831" style="stroke:#181818;stroke-width:1.0;"/><line style="stroke:#181818;stroke-width:1.0;" x1="24" x2="24" y1="223.9063" y2="386.6519"/><line style="stroke:#181818;stroke-width:1.0;" x1="24" x2="123.2676" y1="386.6519" y2="386.6519"/><line style="stroke:#181818;stroke-width:1.0;" x1="123.2676" x2="123.2676" y1="386.6519" y2="406.6519"/><polygon fill="#181818" points="119.2676,396.6519,123.2676,406.6519,127.2676,396.6519,123.2676,400.6519" style="stroke:#181818;stroke-width:1.0;"/><line style="stroke:#181818;stroke-width:1.0;" x1="123.2676" x2="123.2676" y1="191.9063" y2="211.9063"/><polygon fill="#181818" points="119.2676,201.9063,123.2676,211.9063,127.2676,201.9063,123.2676,205.9063" style="stroke:#181818;stroke-width:1.0;"/><line style="stroke:#181818;stroke-width:1.0;" x1="123.2676" x2="123.2676" y1="440.6206" y2="460.6206"/><polygon fill="#181818" points="119.2676,450.6206,123.2676,460.6206,127.2676,450.6206,123.2676,454.6206" style="stroke:#181818;stroke-width:1.0;"/><line style="stroke:#181818;stroke-width:1.0;" x1="123.2676" x2="123.2676" y1="494.5894" y2="514.5894"/><polygon fill="#181818" points="119.2676,504.5894,123.2676,514.5894,127.2676,504.5894,123.2676,508.5894" style="stroke:#181818;stroke-width:1.0;"/><!--SRC=[JOqx2e1034Jxd69ALoi56pzN4KGN3CWgcuXuUxEAO9KCytcYOrIY9g17tLApnsq-9ZLLckBtqhdmwf4nkXx1WGNPvSKHy2jyNsx1eN9jSjC0eqWZFipFZC6YbsFzLHuk1yLh651qssy0]--></g></svg>