<svg xmlns="http://www.w3.org/2000/svg" xmlns:xlink="http://www.w3.org/1999/xlink" contentStyleType="text/css" height="522px" preserveAspectRatio="none" style="width:173px;height:522px;background:#FFFFFF;" version="1.1" viewBox="0 0 173 522" width="173px" zoomAndPan="magnify"><defs/><g><ellipse cx="79.5752" cy="20" fill="#222222" rx="10" ry="10" style="stroke:#222222;stroke-width:1.0;"/><rect fill="#F1F1F1" height="33.9688" rx="12.5" ry="12.5" style="stroke:#181818;stroke-width:0.5;" width="48.6523" x="55.249" y="50"/><text fill="#000000" font-family="sans-serif" font-size="12" lengthAdjust="spacing" textLength="28.6523" x="65.249" y="71.1387">i = 2</text><rect fill="#F1F1F1" height="33.9688" rx="12.5" ry="12.5" style="stroke:#181818;stroke-width:0.5;" width="51.5703" x="53.79" y="103.9688"/><text fill="#000000" font-family="sans-serif" font-size="12" lengthAdjust="spacing" textLength="31.5703" x="63.79" y="125.1074">s = 1</text><rect fill="#F1F1F1" height="33.9688" rx="12.5" ry="12.5" style="stroke:#181818;stroke-width:0.5;" width="69.6699" x="44.7402" y="213.6479"/><text fill="#000000" font-family="sans-serif" font-size="12" lengthAdjust="spacing" textLength="49.6699" x="54.7402" y="234.7866">i = i + 2</text><rect fill="#F1F1F1" height="33.9688" rx="12.5" ry="12.5" style="stroke:#181818;stroke-width:0.5;" width="67.1504" x="46" y="316.019"/><text fill="#000000" font-family="sans-serif" font-size="12" lengthAdjust="spacing" textLength="47.1504" x="56" y="337.1577">s = s * i</text><polygon fill="#F1F1F1" points="49.6125,267.6167,109.5378,267.6167,121.5378,279.6167,109.5378,291.6167,49.6125,291.6167,37.6125,279.6167,49.6125,267.6167" style="stroke:#181818;stroke-width:0.5;"/><text fill="#000000" font-family="sans-serif" font-size="11" lengthAdjust="spacing" textLength="19.0083" x="83.5752" y="301.8271">yes</text><text fill="#000000" font-family="sans-serif" font-size="11" lengthAdjust="spacing" textLength="59.9253" x="49.6125" y="283.4248">i % 3 == 1</text><polygon fill="#F1F1F1" points="79.5752,369.9878,91.5752,381.9878,79.5752,393.9878,67.5752,381.9878,79.5752,369.9878" style="stroke:#181818;stroke-width:0.5;"/><polygon fill="#F1F1F1" points="62.9436,157.9375,96.2068,157.9375,108.2068,169.9375,96.2068,181.9375,62.9436,181.9375,50.9436,169.9375,62.9436,157.9375" style="stroke:#181818;stroke-width:0.5;"/><text fill="#000000" font-family="sans-serif" font-size="11" lengthAdjust="spacing" textLength="19.0083" x="83.5752" y="192.1479">yes</text><text fill="#000000" font-family="sans-serif" font-size="11" lengthAdjust="spacing" textLength="33.2632" x="62.9436" y="173.7456">i &lt; 10</text><text fill="#000000" font-family="sans-serif" font-size="11" lengthAdjust="spacing" textLength="13.7017" x="37.2419" y="167.3433">no</text><rect fill="#F1F1F1" height="33.9688" rx="12.5" ry="12.5" style="stroke:#181818;stroke-width:0.5;" width="63.4297" x="47.8604" y="435.9878"/><text fill="#000000" font-family="sans-serif" font-size="12" lengthAdjust="spacing" textLength="43.4297" x="57.8604" y="457.1265">Print(s)</text><ellipse cx="79.5752" cy="500.9565" fill="none" rx="11" ry="11" style="stroke:#222222;stroke-width:1.0;"/><ellipse cx="79.5752" cy="500.9565" fill="#222222" rx="6" ry="6" style="stroke:#222222;stroke-width:1.0;"/><line style="stroke:#181818;stroke-width:1.0;" x1="79.5752" x2="79.5752" y1="30" y2="50"/><polygon fill="#181818" points="75.5752,40,79.5752,50,83.5752,40,79.5752,44" style="stroke:#181818;stroke-width:1.0;"/><line style="stroke:#181818;stroke-width:1.0;" x1="79.5752" x2="79.5752" y1="83.9688" y2="103.9688"/><polygon fill="#181818" points="75.5752,93.9688,79.5752,103.9688,83.5752,93.9688,79.5752,97.9688" style="stroke:#181818;stroke-width:1.0;"/><line style="stroke:#181818;stroke-width:1.0;" x1="79.5752" x2="79.5752" y1="291.6167" y2="316.019"/><polygon fill="#181818" points="75.5752,306.019,79.5752,316.019,83.5752,306.019,79.5752,310.019" style="stroke:#181818;stroke-width:1.0;"/><line style="stroke:#181818;stroke-width:1.0;" x1="121.5378" x2="133.5378" y1="279.6167" y2="279.6167"/><polygon fill="#181818" points="129.5378,323.0034,133.5378,333.0034,137.5378,323.0034,133.5378,327.0034" style="stroke:#181818;stroke-width:1.0;"/><line style="stroke:#181818;stroke-width:1.0;" x1="133.5378" x2="133.5378" y1="279.6167" y2="381.9878"/><line style="stroke:#181818;stroke-width:1.0;" x1="133.5378" x2="91.5752" y1="381.9878" y2="381.9878"/><polygon fill="#181818" points="101.5752,377.9878,91.5752,381.9878,101.5752,385.9878,97.5752,381.9878" style="stroke:#181818;stroke-width:1.0;"/><line style="stroke:#181818;stroke-width:1.0;" x1="79.5752" x2="79.5752" y1="349.9878" y2="369.9878"/><polygon fill="#181818" points="75.5752,359.9878,79.5752,369.9878,83.5752,359.9878,79.5752,363.9878" style="stroke:#181818;stroke-width:1.0;"/><line style="stroke:#181818;stroke-width:1.0;" x1="79.5752" x2="79.5752" y1="247.6167" y2="267.6167"/><polygon fill="#181818" points="75.5752,257.6167,79.5752,267.6167,83.5752,257.6167,79.5752,261.6167" style="stroke:#181818;stroke-width:1.0;"/><line style="stroke:#181818;stroke-width:1.0;" x1="79.5752" x2="79.5752" y1="181.9375" y2="213.6479"/><polygon fill="#181818" points="75.5752,203.6479,79.5752,213.6479,83.5752,203.6479,79.5752,207.6479" style="stroke:#181818;stroke-width:1.0;"/><line style="stroke:#181818;stroke-width:1.0;" x1="79.5752" x2="79.5752" y1="393.9878" y2="403.9878"/><line style="stroke:#181818;stroke-width:1.0;" x1="79.5752" x2="147.1504" y1="403.9878" y2="403.9878"/><polygon fill="#181818" points="143.1504,290.1167,147.1504,280.1167,151.1504,290.1167,147.1504,286.1167" style="stroke:#181818;stroke-width:1.0;"/><line style="stroke:#181818;stroke-width:1.0;" x1="147.1504" x2="147.1504" y1="169.9375" y2="403.9878"/><line style="stroke:#181818;stroke-width:1.0;" x1="147.1504" x2="108.2068" y1="169.9375" y2="169.9375"/><polygon fill="#181818" points="118.2068,165.9375,108.2068,169.9375,118.2068,173.9375,114.2068,169.9375" style="stroke:#181818;stroke-width:1.0;"/><line style="stroke:#181818;stroke-width:1.0;" x1="50.9436" x2="24" y1="169.9375" y2="169.9375"/><polygon fill="#181818" points="20,276.1167,24,286.1167,28,276.1167,24,280.1167" style="stroke:#181818;stroke-width:1.0;"/><line style="stroke:#181818;stroke-width:1.0;" x1="24" x2="24" y1="169.9375" y2="415.9878"/><line style="stroke:#181818;stroke-width:1.0;" x1="24" x2="79.5752" y1="415.9878" y2="415.9878"/><line style="stroke:#181818;stroke-width:1.0;" x1="79.5752" x2="79.5752" y1="415.9878" y2="435.9878"/><polygon fill="#181818" points="75.5752,425.9878,79.5752,435.9878,83.5752,425.9878,79.5752,429.9878" style="stroke:#181818;stroke-width:1.0;"/><line style="stroke:#181818;stroke-width:1.0;" x1="79.5752" x2="79.5752" y1="137.9375" y2="157.9375"/><polygon fill="#181818" points="75.5752,147.9375,79.5752,157.9375,83.5752,147.9375,79.5752,151.9375" style="stroke:#181818;stroke-width:1.0;"/><line style="stroke:#181818;stroke-width:1.0;" x1="79.5752" x2="79.5752" y1="469.9565" y2="489.9565"/><polygon fill="#181818" points="75.5752,479.9565,79.5752,489.9565,83.5752,479.9565,79.5752,483.9565" style="stroke:#181818;stroke-width:1.0;"/><!--SRC=[FSr12eDG30JGVKuncy9Fkwcwqtg7Ng7W5mVaMqoWzFRcb-8csRoPCN_jBj8J8zf1UelV32AVXMj68XvexWeQqZUR2l2ZnAroW7D55tGO8wZm9PUJ1gvzXYjOSIuJPudxRo-RnlHpP_5a6glcs_i0]--></g></svg>